<?xml version="1.0" encoding="UTF-8" standalone="no"?>
<svg
   height="24px"
   viewBox="0 -960 960 960"
   width="24px"
   fill="#5f6368"
   version="1.1"
   id="svg1"
   sodipodi:docname="settings_heart.svg"
   inkscape:export-filename="settings_heart.png"
   inkscape:export-xdpi="960"
   inkscape:export-ydpi="960"
   inkscape:version="1.3.2 (091e20e, 2023-11-25, custom)"
   xmlns:inkscape="http://www.inkscape.org/namespaces/inkscape"
   xmlns:sodipodi="http://sodipodi.sourceforge.net/DTD/sodipodi-0.dtd"
   xmlns="http://www.w3.org/2000/svg"
   xmlns:svg="http://www.w3.org/2000/svg">
  <defs
     id="defs1" />
  <sodipodi:namedview
     id="namedview1"
     pagecolor="#ffffff"
     bordercolor="#000000"
     borderopacity="0.25"
     inkscape:showpageshadow="2"
     inkscape:pageopacity="0.0"
     inkscape:pagecheckerboard="0"
     inkscape:deskcolor="#d1d1d1"
     inkscape:zoom="36.791667"
     inkscape:cx="11.98641"
     inkscape:cy="12.01359"
     inkscape:window-width="2160"
     inkscape:window-height="1136"
     inkscape:window-x="1221"
     inkscape:window-y="-7"
     inkscape:window-maximized="1"
     inkscape:current-layer="svg1" />
  <path
     d="m482-320 140-140q17-17 22-41.5t-5-47.5q-10-23-30-37t-45-14q-25 0-45 15.5T482-552q-18-17-37.5-32.5T400-600q-25 0-45.5 13.5T324-550q-10 23-4.5 47.5T342-460l140 140ZM370-80l-16-128q-13-5-24.5-12T307-235l-119 50L78-375l103-78q-1-7-1-13.5v-27q0-6.5 1-13.5L78-585l110-190 119 50q11-8 23-15t24-12l16-128h220l16 128q13 5 24.5 12t22.5 15l119-50 110 190-103 78q1 7 1 13.5v27q0 6.5-2 13.5l103 78-110 190-118-50q-11 8-23 15t-24 12L590-80H370Zm70-80h79l14-106q31-8 57.5-23.5T639-327l99 41 39-68-86-65q5-14 7-29.5t2-31.5q0-16-2-31.5t-7-29.5l86-65-39-68-99 42q-22-23-48.5-38.5T533-694l-13-106h-79l-14 106q-31 8-57.5 23.5T321-633l-99-41-39 68 86 64q-5 15-7 30t-2 32q0 16 2 31t7 30l-86 65 39 68 99-42q22 23 48.5 38.5T427-266l13 106Zm40-320Z"
     id="path1" />
</svg>
