<?xml version="1.0" encoding="UTF-8" standalone="no"?>
<!-- Created with Inkscape (http://www.inkscape.org/) -->

<svg
   width="48mm"
   height="48.000214mm"
   viewBox="0 0 48 48.000214"
   version="1.1"
   id="svg1"
   inkscape:version="1.3.2 (091e20e, 2023-11-25, custom)"
   sodipodi:docname="logo-unido.svg"
   inkscape:export-filename="logo.png"
   inkscape:export-xdpi="96"
   inkscape:export-ydpi="96"
   xmlns:inkscape="http://www.inkscape.org/namespaces/inkscape"
   xmlns:sodipodi="http://sodipodi.sourceforge.net/DTD/sodipodi-0.dtd"
   xmlns="http://www.w3.org/2000/svg"
   xmlns:svg="http://www.w3.org/2000/svg">
  <sodipodi:namedview
     id="namedview1"
     pagecolor="#ffffff"
     bordercolor="#000000"
     borderopacity="0.25"
     inkscape:showpageshadow="2"
     inkscape:pageopacity="0.0"
     inkscape:pagecheckerboard="0"
     inkscape:deskcolor="#d1d1d1"
     inkscape:document-units="mm"
     inkscape:zoom="4.4044578"
     inkscape:cx="91.271166"
     inkscape:cy="104.66669"
     inkscape:window-width="1920"
     inkscape:window-height="1112"
     inkscape:window-x="-8"
     inkscape:window-y="-8"
     inkscape:window-maximized="1"
     inkscape:current-layer="g1" />
  <defs
     id="defs1" />
  <g
     inkscape:label="Camada 1"
     inkscape:groupmode="layer"
     id="layer1"
     transform="translate(-78.994292,-82.23815)">
    <g
       id="g1"
       transform="translate(-0.22364903,-0.02157013)">
      <path
         id="rect1-8-1-7-8-2"
         style="fill:#000000;fill-opacity:1;stroke:none;stroke-width:0.171249"
         d="M 117.21769 88.259871 L 117.21769 90.259749 L 117.21769 92.259627 L 117.21769 94.259504 L 117.21769 96.259899 L 117.21769 98.259777 L 117.21769 100.25966 L 117.21769 102.25953 L 117.21769 104.25993 L 117.21769 106.25981 L 117.21769 108.25968 L 117.21769 110.25956 L 117.21769 112.25996 L 117.21769 114.25983 L 117.21769 116.25971 L 117.21769 118.26011 L 115.21781 118.26011 L 115.21781 120.25998 L 113.21793 120.25998 L 111.21805 120.25998 L 109.21818 120.25998 L 107.21778 120.25998 L 105.2179 120.25998 L 103.21803 120.25998 L 101.21815 120.25998 L 99.217754 120.25998 L 97.217876 120.25998 L 95.217998 120.25998 L 93.21812 120.25998 L 91.217725 120.25998 L 89.217847 120.25998 L 87.21797 120.25998 L 87.21797 118.26011 L 85.218092 118.26011 L 85.218092 116.25971 L 85.218092 114.25983 L 83.217697 114.25983 L 83.217697 112.25996 L 83.217697 110.26008 L 81.217819 110.26008 L 81.217819 112.25996 L 81.217819 114.25983 L 81.217819 116.25971 L 81.217819 118.26011 L 81.217819 120.25998 L 83.217697 120.25998 L 83.217697 122.25986 L 85.218092 122.25986 L 85.218092 124.25974 L 87.21797 124.25974 L 89.217847 124.25974 L 89.217847 126.26014 L 91.217725 126.26014 L 93.21812 126.26014 L 93.21812 124.25974 L 95.217998 124.25974 L 95.217998 126.26014 L 97.217876 126.26014 L 99.217754 126.26014 L 99.217754 124.25974 L 101.21815 124.25974 L 101.21815 126.26014 L 103.21803 126.26014 L 105.2179 126.26014 L 105.2179 124.25974 L 107.21778 124.25974 L 107.21778 126.26014 L 109.21818 126.26014 L 111.21805 126.26014 L 111.21805 124.25974 L 113.21793 124.25974 L 113.21793 126.26014 L 115.21781 126.26014 L 117.21821 126.26014 L 117.21821 124.25974 L 119.21808 124.25974 L 119.21808 122.25986 L 121.21796 122.25986 L 121.21796 120.25998 L 121.21796 118.26011 L 121.21796 116.25971 L 121.21796 114.25983 L 121.21796 112.25996 L 121.21796 110.25956 L 121.21796 108.25968 L 121.21796 106.25981 L 121.21796 104.25993 L 121.21796 102.25953 L 121.21796 100.25966 L 121.21796 98.259777 L 123.21784 98.259777 L 123.21784 96.259899 L 125.21772 96.259899 L 125.21772 94.259504 L 123.21784 94.259504 L 123.21784 92.259627 L 123.21784 90.259749 L 123.21784 88.259871 L 121.21796 88.259871 L 121.21796 90.259749 L 121.21796 92.259627 L 121.21796 94.259504 L 119.21808 94.259504 L 119.21808 92.259627 L 119.21808 90.259749 L 119.21808 88.259871 L 117.21769 88.259871 z M 89.217847 92.259627 L 89.217847 94.260021 L 87.21797 94.260021 L 87.21797 96.259899 L 87.21797 98.259777 L 87.21797 100.25966 L 87.21797 102.26005 L 87.21797 104.25993 L 87.21797 106.25981 L 87.21797 108.25968 L 87.21797 110.26008 L 87.21797 112.25996 L 87.21797 114.25983 L 87.21797 116.25971 L 89.217847 116.25971 L 89.217847 118.26011 L 91.217725 118.26011 L 91.217725 116.25971 L 91.217725 114.25983 L 89.217847 114.25983 L 89.217847 112.25996 L 89.217847 110.26008 L 89.217847 108.25968 L 89.217847 106.25981 L 89.217847 104.25993 L 89.217847 102.26005 L 89.217847 100.25966 L 89.217847 98.259777 L 89.217847 96.259899 L 91.217725 96.259899 L 91.217725 94.260021 L 93.21812 94.260021 L 95.217998 94.260021 L 97.217876 94.260021 L 99.217754 94.260021 L 101.21815 94.260021 L 103.21803 94.260021 L 105.2179 94.260021 L 107.21778 94.260021 L 109.21818 94.260021 L 111.21805 94.260021 L 111.21805 96.259899 L 113.21793 96.259899 L 113.21793 98.259777 L 113.21793 100.25966 L 113.21793 102.25953 L 113.21793 104.25993 L 113.21793 106.25981 L 113.21793 108.25968 L 113.21793 110.25956 L 113.21793 112.25996 L 113.21793 114.25983 L 111.21805 114.25983 L 111.21805 116.25971 L 109.21818 116.25971 L 107.21778 116.25971 L 105.2179 116.25971 L 103.21803 116.25971 L 101.21815 116.25971 L 99.217754 116.25971 L 97.217876 116.25971 L 95.217998 116.25971 L 95.217998 114.25983 L 95.217998 112.25996 L 95.217998 110.26008 L 93.21812 110.26008 L 93.21812 108.25968 L 93.21812 106.25981 L 93.21812 104.25993 L 93.21812 102.26005 L 93.21812 100.25966 L 95.217998 100.25966 L 95.217998 98.259777 L 97.217876 98.259777 L 99.217754 98.259777 L 101.21815 98.259777 L 103.21803 98.259777 L 105.2179 98.259777 L 107.21778 98.259777 L 107.21778 100.25966 L 109.21818 100.25966 L 109.21818 102.26005 L 109.21818 104.25993 L 109.21818 106.25981 L 109.21818 108.25968 L 109.21818 110.26008 L 107.21778 110.26008 L 107.21778 112.25996 L 105.2179 112.25996 L 103.21803 112.25996 L 101.21815 112.25996 L 99.217754 112.25996 L 99.217754 110.26008 L 99.217754 108.25968 L 99.217754 106.25981 L 97.217876 106.25981 L 97.217876 104.25993 L 99.217754 104.25993 L 99.217754 102.26005 L 101.21815 102.26005 L 103.21803 102.26005 L 103.21803 104.25993 L 105.2179 104.25993 L 105.2179 106.25981 L 103.21803 106.25981 L 103.21803 108.25968 L 101.21815 108.25968 L 101.21815 110.26008 L 103.21803 110.26008 L 105.2179 110.26008 L 105.2179 108.25968 L 107.21778 108.25968 L 107.21778 106.25981 L 107.21778 104.25993 L 107.21778 102.26005 L 105.2179 102.26005 L 105.2179 100.25966 L 103.21803 100.25966 L 101.21815 100.25966 L 99.217754 100.25966 L 97.217876 100.25966 L 97.217876 102.26005 L 95.217998 102.26005 L 95.217998 104.25993 L 95.217998 106.25981 L 95.217998 108.25968 L 97.217876 108.25968 L 97.217876 110.26008 L 97.217876 112.25996 L 97.217876 114.25983 L 99.217754 114.25983 L 101.21815 114.25983 L 103.21803 114.25983 L 105.2179 114.25983 L 107.21778 114.25983 L 109.21818 114.25983 L 109.21818 112.25996 L 111.21805 112.25996 L 111.21805 110.26008 L 111.21805 108.25968 L 111.21805 106.25981 L 111.21805 104.25993 L 111.21805 102.26005 L 111.21805 100.25966 L 111.21805 98.259777 L 109.21818 98.259777 L 109.21818 96.259899 L 107.21778 96.259899 L 105.2179 96.259899 L 103.21803 96.259899 L 101.21815 96.259899 L 99.217754 96.259899 L 97.217876 96.259899 L 95.217998 96.259899 L 93.21812 96.259899 L 93.21812 98.259777 L 91.217725 98.259777 L 91.217725 100.25966 L 91.217725 102.26005 L 91.217725 104.25993 L 91.217725 106.25981 L 91.217725 108.25968 L 91.217725 110.26008 L 91.217725 112.25996 L 93.21812 112.25996 L 93.21812 114.25983 L 93.21812 116.25971 L 93.21812 118.26011 L 95.217998 118.26011 L 97.217876 118.26011 L 99.217754 118.26011 L 101.21815 118.26011 L 103.21803 118.26011 L 105.2179 118.26011 L 107.21778 118.26011 L 109.21818 118.26011 L 111.21805 118.26011 L 113.21793 118.26011 L 113.21793 116.25971 L 115.21781 116.25971 L 115.21781 114.25983 L 115.21781 112.25996 L 115.21781 110.25956 L 115.21781 108.25968 L 115.21781 106.25981 L 115.21781 104.25993 L 115.21781 102.25953 L 115.21781 100.25966 L 115.21781 98.259777 L 115.21781 96.259899 L 115.21781 94.259504 L 113.21793 94.259504 L 113.21793 92.259627 L 111.21805 92.259627 L 109.21818 92.259627 L 107.21778 92.259627 L 105.2179 92.259627 L 103.21803 92.259627 L 101.21815 92.259627 L 99.217754 92.259627 L 97.217876 92.259627 L 95.217998 92.259627 L 93.21812 92.259627 L 91.217725 92.259627 L 89.217847 92.259627 z " />
    </g>
  </g>
</svg>
