<?xml version="1.0" encoding="UTF-8" standalone="no"?>
<svg
   height="24px"
   viewBox="0 -960 960 960"
   width="24px"
   fill="#5f6368"
   version="1.1"
   id="svg1"
   sodipodi:docname="token.svg"
   inkscape:export-filename="token.png"
   inkscape:export-xdpi="960"
   inkscape:export-ydpi="960"
   inkscape:version="1.3.2 (091e20e, 2023-11-25, custom)"
   xmlns:inkscape="http://www.inkscape.org/namespaces/inkscape"
   xmlns:sodipodi="http://sodipodi.sourceforge.net/DTD/sodipodi-0.dtd"
   xmlns="http://www.w3.org/2000/svg"
   xmlns:svg="http://www.w3.org/2000/svg">
  <defs
     id="defs1" />
  <sodipodi:namedview
     id="namedview1"
     pagecolor="#ffffff"
     bordercolor="#000000"
     borderopacity="0.25"
     inkscape:showpageshadow="2"
     inkscape:pageopacity="0.0"
     inkscape:pagecheckerboard="0"
     inkscape:deskcolor="#d1d1d1"
     inkscape:zoom="36.791667"
     inkscape:cx="11.98641"
     inkscape:cy="12.01359"
     inkscape:window-width="2160"
     inkscape:window-height="1136"
     inkscape:window-x="1221"
     inkscape:window-y="-7"
     inkscape:window-maximized="1"
     inkscape:current-layer="svg1" />
  <path
     d="M480-80 120-280v-400l360-200 360 200v400L480-80ZM364-590q23-24 53-37t63-13q33 0 63 13t53 37l120-67-236-131-236 131 120 67Zm76 396v-131q-54-14-87-57t-33-98q0-11 1-20.5t4-19.5l-125-70v263l240 133Zm40-206q33 0 56.5-23.5T560-480q0-33-23.5-56.5T480-560q-33 0-56.5 23.5T400-480q0 33 23.5 56.5T480-400Zm40 206 240-133v-263l-125 70q3 10 4 19.5t1 20.5q0 55-33 98t-87 57v131Z"
     id="path1" />
</svg>
